G04 MADE WITH FRITZING*
G04 WWW.FRITZING.ORG*
G04 DOUBLE SIDED*
G04 HOLES PLATED*
G04 CONTOUR ON CENTER OF CONTOUR VECTOR*
%ASAXBY*%
%FSLAX23Y23*%
%MOIN*%
%OFA0B0*%
%SFA1.0B1.0*%
%ADD10C,0.049370*%
%ADD11C,0.085000*%
%ADD12C,0.072992*%
%ADD13R,0.076097X0.233103*%
%ADD14R,0.072992X0.072992*%
%LNMASK0*%
G90*
G70*
G54D10*
X2239Y127D03*
G54D11*
X2685Y1128D03*
X2585Y1128D03*
X2485Y1128D03*
X2370Y1136D03*
X2270Y1136D03*
X2170Y1136D03*
X2047Y1136D03*
X1947Y1136D03*
X1847Y1136D03*
X1740Y1136D03*
X1640Y1136D03*
X1540Y1136D03*
X1417Y1136D03*
X1317Y1136D03*
X1217Y1136D03*
X1087Y1143D03*
X987Y1143D03*
X887Y1143D03*
X764Y1136D03*
X664Y1136D03*
X564Y1136D03*
X425Y1128D03*
X325Y1128D03*
X225Y1128D03*
X233Y1750D03*
X233Y1350D03*
X2485Y1734D03*
X2485Y1334D03*
X2162Y1758D03*
X2162Y1358D03*
X1840Y1758D03*
X1840Y1358D03*
X1540Y1758D03*
X1540Y1358D03*
X1225Y1758D03*
X1225Y1358D03*
X895Y1773D03*
X895Y1373D03*
X564Y1758D03*
X564Y1358D03*
X2595Y953D03*
X2595Y553D03*
X2280Y962D03*
X2280Y562D03*
X1966Y962D03*
X1966Y562D03*
X1651Y962D03*
X1651Y562D03*
X1336Y962D03*
X1336Y562D03*
X981Y962D03*
X981Y562D03*
X627Y978D03*
X627Y578D03*
X312Y962D03*
X312Y562D03*
G54D12*
X2477Y1927D03*
X2477Y2025D03*
X2162Y1927D03*
X2162Y2025D03*
X1847Y1927D03*
X1847Y2025D03*
X1532Y1927D03*
X1532Y2025D03*
X1217Y1927D03*
X1217Y2025D03*
X903Y1927D03*
X903Y2025D03*
X588Y1927D03*
X588Y2025D03*
X273Y1927D03*
X273Y2025D03*
G54D10*
X2753Y2025D03*
X430Y836D03*
X784Y826D03*
X1099Y826D03*
X1454Y826D03*
X1769Y826D03*
X2084Y826D03*
X2399Y826D03*
X2714Y826D03*
X1133Y323D03*
X1273Y323D03*
G54D13*
X2124Y133D03*
X561Y133D03*
X1967Y133D03*
X1809Y133D03*
X1652Y133D03*
X1505Y133D03*
X1348Y133D03*
X1179Y133D03*
X1033Y133D03*
X876Y133D03*
X718Y133D03*
X392Y133D03*
G54D14*
X2477Y1927D03*
X2162Y1927D03*
X1847Y1927D03*
X1532Y1927D03*
X1217Y1927D03*
X903Y1927D03*
X588Y1927D03*
X273Y1927D03*
G04 End of Mask0*
M02*