; NON-PLATED HOLES START AT T1
; THROUGH (PLATED) HOLES START AT T100
M48
INCH
T100C0.031497
T101C0.035000
T102C0.015748
%
T100
X002726Y019269
X009025Y020253
X015324Y020253
X005875Y020253
X012174Y019269
X018474Y019269
X024773Y019269
X012174Y020253
X018474Y020253
X009025Y019269
X021623Y020253
X002726Y020253
X015324Y019269
X021623Y019269
X005875Y019269
X024773Y020253
T101
X024852Y013340
X009812Y005623
X018395Y013576
X013174Y011356
X018474Y011356
X005639Y011356
X025954Y009530
X022804Y005623
X019655Y009623
X012174Y011356
X013356Y005623
X024852Y011277
X022804Y009623
X002332Y017497
X004253Y011277
X022702Y011356
X012253Y017576
X025954Y005530
X016403Y011356
X016505Y009623
X008867Y011434
X005639Y017576
X021623Y013576
X024852Y017340
X014174Y011356
X009867Y011434
X015403Y017576
X015403Y013576
X002332Y013497
X012253Y013576
X013356Y009623
X021702Y011356
X006269Y009781
X008946Y013734
X005639Y013576
X009812Y009623
X002253Y011277
X026852Y011277
X016505Y005623
X015403Y011356
X008946Y017734
X003119Y009623
X003253Y011277
X003119Y005623
X018395Y017576
X010867Y011434
X006639Y011356
X019655Y005623
X006269Y005781
X021623Y017576
X017403Y011356
X007639Y011356
X020474Y011356
X025852Y011277
X023702Y011356
X019474Y011356
T102
X011327Y003228
X022385Y001272
X023986Y008256
X007844Y008256
X014537Y008256
X020836Y008256
X027529Y020253
X017686Y008256
X004300Y008356
X010993Y008256
X027135Y008256
X012729Y003228
T00
M30
